HIERARCHY
ROOT SimulationBone
{
	OFFSET 0.000000 0.000000 0.000000
	CHANNELS 6 Xposition Yposition Zposition Zrotation Yrotation Xrotation 
	JOINT Hips
	{
		OFFSET 0.000000 0.000000 0.000000
		CHANNELS 6 Xposition Yposition Zposition Zrotation Yrotation Xrotation 
		JOINT LeftUpLeg
		{
			OFFSET 0.103457 1.857818 10.548502
			CHANNELS 3 Zrotation Yrotation Xrotation
			JOINT LeftLeg
			{
				OFFSET 43.500000 -0.000011 -0.000004
				CHANNELS 3 Zrotation Yrotation Xrotation
				JOINT LeftFoot
				{
					OFFSET 42.372192 -0.000004 -0.000008
					CHANNELS 3 Zrotation Yrotation Xrotation
					JOINT LeftToe
					{
						OFFSET 17.300014 0.000006 0.000001
						CHANNELS 3 Zrotation Yrotation Xrotation
						End Site
						{
							OFFSET 0.000000 0.000000 0.000000
						}
					}
				}
			}
		}
		JOINT RightUpLeg
		{
			OFFSET 0.103457 1.857817 -10.548505
			CHANNELS 3 Zrotation Yrotation Xrotation
			JOINT RightLeg
			{
				OFFSET 43.500046 -0.000004 0.000011
				CHANNELS 3 Zrotation Yrotation Xrotation
				JOINT RightFoot
				{
					OFFSET 42.372257 0.000000 0.000015
					CHANNELS 3 Zrotation Yrotation Xrotation
					JOINT RightToe
					{
						OFFSET 17.300003 -0.000000 0.000002
						CHANNELS 3 Zrotation Yrotation Xrotation
						End Site
						{
							OFFSET 0.000000 0.000000 0.000000
						}
					}
				}
			}
		}
		JOINT Spine
		{
			OFFSET 6.901961 -2.603721 -0.000001
			CHANNELS 3 Zrotation Yrotation Xrotation
			JOINT Spine1
			{
				OFFSET 12.588108 0.000002 -0.000001
				CHANNELS 3 Zrotation Yrotation Xrotation
				JOINT Spine2
				{
					OFFSET 12.343199 -0.000020 0.000006
					CHANNELS 3 Zrotation Yrotation Xrotation
					JOINT Neck
					{
						OFFSET 25.832905 0.000017 0.000000
						CHANNELS 3 Zrotation Yrotation Xrotation
						JOINT Head
						{
							OFFSET 11.766604 -0.000006 0.000004
							CHANNELS 3 Zrotation Yrotation Xrotation
							End Site
							{
								OFFSET 0.000000 0.000000 0.000000
							}
						}
					}
					JOINT LeftShoulder
					{
						OFFSET 19.745903 -1.480350 6.000100
						CHANNELS 3 Zrotation Yrotation Xrotation
						JOINT LeftArm
						{
							OFFSET 11.284130 -0.000016 -0.000016
							CHANNELS 3 Zrotation Yrotation Xrotation
							JOINT LeftForeArm
							{
								OFFSET 33.000046 0.000004 0.000031
								CHANNELS 3 Zrotation Yrotation Xrotation
								JOINT LeftHand
								{
									OFFSET 25.199999 0.000027 0.000001
									CHANNELS 3 Zrotation Yrotation Xrotation
									End Site
									{
										OFFSET 0.000000 0.000000 0.000000
									}
								}
							}
						}
					}
					JOINT RightShoulder
					{
						OFFSET 19.746094 -1.480375 -6.000080
						CHANNELS 3 Zrotation Yrotation Xrotation
						JOINT RightArm
						{
							OFFSET 11.284131 -0.000016 -0.000017
							CHANNELS 3 Zrotation Yrotation Xrotation
							JOINT RightForeArm
							{
								OFFSET 33.000095 0.000009 0.000020
								CHANNELS 3 Zrotation Yrotation Xrotation
								JOINT RightHand
								{
									OFFSET 25.199789 0.000132 0.000423
									CHANNELS 3 Zrotation Yrotation Xrotation
									End Site
									{
										OFFSET 0.000000 0.000000 0.000000
									}
								}
							}
						}
					}
				}
			}
		}
	}
}
MOTION
Frames: 12
Frame Time: 0.016667
-341.187100 0.000000 402.889818 0.000000 225.440954 0.000000 1.723715 88.149513 4.341266 98.182168 7.947331 178.614240 149.702842 -3.980392 173.052432 -46.931520 -0.170876 -7.908159 73.282075 4.615026 -3.643110 21.454551 0.003085 -0.000001 -173.682777 -0.276702 -169.083368 -36.794286 3.848677 -1.454581 84.264630 0.994704 0.559283 21.454550 -0.003107 -0.000017 8.821027 0.580395 3.213247 7.656270 0.947206 6.457964 7.340342 0.986245 6.452163 3.910280 -4.496401 8.502662 -7.628238 3.699626 7.060698 -160.142799 -75.753698 -21.788940 38.652559 47.954016 54.590832 -93.122361 -3.171650 2.665570 -0.511434 -9.032736 29.939098 177.217099 76.902249 -1.370179 -9.932497 -51.988216 -19.538202 -96.352200 1.664198 -2.747567 -3.324697 6.341354 -17.886741 
-343.337062 0.000000 405.673068 0.000000 225.536157 0.000000 1.743837 88.989708 4.440846 97.515943 8.056031 178.574080 151.354837 -3.824593 170.621488 -37.160649 0.216490 -7.377231 72.782985 4.049436 -4.214834 21.454549 0.003083 0.000000 -171.408965 -0.080765 -168.343146 -34.615267 3.627671 -1.880605 80.152831 1.553711 1.495540 21.454552 -0.003109 -0.000016 8.586482 0.445335 3.273044 7.180033 0.687138 6.567420 6.864194 0.726831 6.563177 3.429628 -5.042774 8.660191 -7.843575 4.395274 6.919440 -159.199370 -75.899193 -22.751063 40.966367 46.078869 56.029196 -93.593807 -3.113218 2.682261 -0.741886 -8.528977 29.545803 179.686592 76.899355 1.148684 -8.448523 -52.208869 -21.966637 -98.381617 1.342375 -2.819922 -4.145051 6.238119 -17.304699 
-345.455742 0.000000 408.411324 0.000000 225.705376 0.000000 1.806377 89.611031 4.533052 96.970901 8.427771 178.472052 153.019145 -3.843402 168.365365 -28.472541 0.449109 -7.223197 72.691592 3.917600 -4.278170 21.454548 0.003087 0.000001 -169.579131 0.061495 -167.276688 -33.612726 3.250483 -2.584530 76.684718 2.494960 2.826649 21.454557 -0.003110 -0.000015 8.359993 0.389842 3.275620 6.724207 0.589208 6.568330 6.408365 0.628904 6.564676 3.266812 -5.410538 8.895618 -8.017830 4.920752 6.945991 -158.442027 -75.907692 -23.525010 43.123481 44.431534 57.055171 -93.951375 -3.087763 2.696565 -0.934768 -7.840214 29.569090 -177.893971 76.820314 3.615911 -6.883093 -52.048807 -24.422807 -100.090506 1.020982 -2.869989 -4.896529 6.331509 -17.379760 
-347.543135 0.000000 411.097663 0.000000 225.961047 0.000000 1.849867 90.079918 4.607119 96.535956 8.917562 178.295987 154.349416 -3.989665 166.468470 -21.821079 0.542208 -7.878008 73.097606 4.616439 -3.526433 21.454549 0.003091 -0.000000 -168.379879 0.160606 -166.244085 -33.921495 2.620725 -3.334669 73.811430 3.451998 3.814796 21.454562 -0.003111 -0.000015 8.143911 0.384747 3.215419 6.291876 0.594705 6.446962 5.975954 0.633677 6.443281 3.459846 -5.473003 9.183566 -8.092316 5.206576 7.162482 -157.637378 -75.788115 -24.349513 44.949184 43.120159 57.669200 -94.197534 -3.078508 2.706945 -1.059067 -7.019904 29.877794 -175.723464 76.694042 5.829566 -5.257823 -51.592295 -26.862504 -101.432668 0.814905 -2.913940 -5.520363 6.606843 -17.878956 
-349.596153 0.000000 413.728680 0.000000 226.311170 0.000000 1.891327 90.366692 4.673661 96.227221 9.523073 178.046260 155.275157 -4.300098 164.824472 -17.712197 0.771239 -8.959841 73.844719 5.583276 -2.850936 21.454553 0.003092 -0.000002 -167.861092 0.156686 -165.631240 -35.611359 1.811295 -3.946079 71.445164 4.143865 4.171318 21.454567 -0.003111 -0.000016 7.944010 0.422127 3.101422 5.894000 0.686414 6.220292 5.577926 0.724029 6.216066 3.949686 -5.196645 9.504564 -8.063577 5.237364 7.555091 -156.675139 -75.580042 -25.337025 46.315310 42.176291 57.906671 -94.318580 -3.081122 2.712438 -1.090126 -6.104522 30.362420 -173.895017 76.562290 7.695020 -3.510501 -50.977003 -29.170388 -102.375997 0.704765 -2.949858 -5.934405 6.929984 -18.506690 
-351.609185 0.000000 416.301805 0.000000 226.757694 0.000000 1.970903 90.405316 4.748225 96.082958 10.253831 177.746174 155.822917 -4.796986 163.325008 -16.397670 1.248274 -9.978564 74.483817 6.300676 -2.841958 21.454555 0.003089 -0.000001 -167.979773 0.005860 -165.735570 -38.683764 0.950672 -4.235563 69.595989 4.374445 3.888627 21.454567 -0.003111 -0.000016 7.773233 0.494812 2.943274 5.555742 0.848472 5.906920 5.239452 0.884202 5.901721 4.645565 -4.596240 9.847135 -7.956305 5.028679 8.093060 -155.532980 -75.325322 -26.510021 47.104591 41.595331 57.789708 -94.294598 -3.096198 2.712298 -1.002458 -5.117227 30.918061 -172.431188 76.461747 9.189107 -1.560683 -50.335211 -31.239691 -102.896435 0.645218 -2.969592 -6.056274 7.155845 -18.982863 
-353.578732 0.000000 418.815102 0.000000 227.298190 0.000000 2.135370 90.080437 4.837445 96.206455 11.023096 177.483940 156.122907 -5.406207 162.139798 -17.427369 1.719737 -10.938484 73.822630 7.305137 -1.627540 21.454555 0.003087 0.000000 -168.454062 -0.186902 -166.475220 -42.910427 0.192424 -4.009057 68.692202 4.186367 3.618046 21.454565 -0.003111 -0.000016 7.670045 0.577096 2.738819 5.352221 1.027627 5.501438 5.035664 1.060914 5.495162 5.426704 -3.788377 10.211666 -7.845475 4.668404 8.718895 -154.413623 -75.049370 -27.660989 47.240572 41.315397 57.290045 -94.097029 -3.131637 2.706116 -0.754596 -4.042087 31.433513 -171.246570 76.395210 10.398635 0.580395 -49.728612 -32.996902 -102.989198 0.619845 -2.971215 -5.845306 7.193390 -19.166390 
-355.502964 0.000000 421.269981 0.000000 227.930070 0.000000 2.398669 89.339635 4.932145 96.693946 11.641674 177.351083 156.315985 -5.938989 161.500215 -20.209486 1.911898 -11.920045 71.347124 9.202062 2.277306 21.454552 0.003091 0.000001 -168.998673 -0.234335 -167.667759 -47.990917 -0.320824 -3.140954 69.029900 3.684233 3.957427 21.454561 -0.003111 -0.000016 7.674050 0.622405 2.482433 5.360174 1.129812 4.991067 5.043322 1.160027 4.984179 6.174722 -2.914885 10.597041 -7.812282 4.262354 9.371580 -153.564809 -74.772499 -28.536046 46.614670 41.300132 56.311652 -93.686336 -3.191023 2.692356 -0.313848 -2.865999 31.835157 -170.224674 76.341498 11.442276 2.834203 -49.215985 -34.369081 -102.643423 0.629989 -2.955152 -5.299831 7.003833 -19.010205 
-357.379324 0.000000 423.671073 0.000000 228.650708 0.000000 2.649638 88.431534 4.957787 97.535156 11.596352 177.372025 156.512023 -5.860991 161.604844 -24.320996 1.720241 -12.824523 69.629263 11.274043 6.508460 21.454550 0.003098 0.000001 -169.556304 0.242404 -169.102657 -53.537849 -0.650641 -1.694883 69.965226 2.867211 4.702780 21.454560 -0.003111 -0.000016 7.803942 0.518332 2.165429 5.612959 0.931539 4.353438 5.295818 0.957924 4.347751 6.812533 -2.120473 10.998863 -7.918225 3.910834 9.998691 -153.250155 -74.497450 -28.864978 44.970142 41.684466 54.565752 -92.987779 -3.253418 2.665302 0.311886 -1.627415 32.198610 -169.206966 76.224776 12.481823 4.932584 -48.902296 -35.240288 -101.804611 0.720115 -2.925479 -4.524773 6.719232 -18.693159 
-359.205997 0.000000 426.025740 0.000000 229.457797 0.000000 2.796582 87.595821 4.843803 98.680325 10.499713 177.513009 156.818206 -4.750423 162.540091 -29.358785 1.128047 -13.563608 70.954363 12.329437 8.626034 21.454551 0.003102 0.000000 -170.159191 1.513599 -170.588099 -59.213669 -0.924809 0.203624 70.769169 1.724100 5.447027 21.454563 -0.003109 -0.000016 8.064398 0.179250 1.788793 6.120134 0.263982 3.584504 5.802719 0.285753 3.582849 7.284837 -1.530292 11.405859 -8.204082 3.692344 10.555664 -153.688108 -74.224467 -28.423410 42.025991 42.531533 51.771282 -91.930250 -3.324246 2.622430 1.090202 -0.397634 32.660536 -168.066194 75.964033 13.647727 6.647056 -48.880356 -35.540298 -100.400695 0.922176 -2.880680 -3.653655 6.519738 -18.437761 
-360.984144 0.000000 428.342806 0.000000 230.349073 0.000000 2.941651 86.735397 4.618979 100.009096 8.799765 177.658182 157.312493 -2.978613 163.972215 -34.808163 0.204195 -14.341650 74.426815 12.608625 8.998330 21.454553 0.003102 0.000000 -170.894816 3.212795 -172.010692 -64.955207 -1.279008 2.308976 71.307604 0.284277 5.736740 21.454567 -0.003108 -0.000015 8.419640 -0.309138 1.398983 6.818044 -0.699960 2.777383 6.500340 -0.683034 2.781558 7.587195 -1.190511 11.794050 -8.654295 3.601178 11.019980 -154.941227 -73.961902 -27.146008 37.727741 43.571490 48.048266 -90.492055 -3.540046 2.574548 1.921109 0.674014 33.453466 -166.769286 75.518597 14.974914 8.055491 -49.112003 -35.372104 -98.333215 1.174971 -2.802140 -2.836794 6.595515 -18.426218 
-362.715951 0.000000 430.632357 0.000000 231.321406 0.000000 3.182420 85.736877 4.338416 101.368391 7.047952 177.709393 158.053930 -1.035328 165.459523 -40.086057 -0.972561 -15.297961 78.609243 12.723083 8.570051 21.454553 0.003098 0.000000 -171.876560 4.885691 -173.323537 -70.746042 -1.834114 4.391796 71.613916 -1.379411 5.254271 21.454565 -0.003108 -0.000013 8.820528 -0.836737 1.044958 7.613590 -1.740298 2.032901 7.295560 -1.727849 2.043380 7.738923 -1.111787 12.137371 -9.233028 3.598352 11.378380 -156.999907 -73.715664 -25.041258 32.152162 44.490435 43.655132 -88.701501 -4.040647 2.529765 2.694898 1.439232 34.780317 -165.351260 74.880740 16.429072 9.270827 -49.530220 -34.939651 -95.528195 1.483198 -2.687843 -2.203107 7.107346 -18.754228 
